<svg width="64" height="64" viewBox="0 0 64 64" fill="none" xmlns="http://www.w3.org/2000/svg">
<path d="M59.63 12.336C58.968 10.896 57.566 10 55.972 10H8.02795C6.43395 10 5.03195 10.896 4.36795 12.336C3.70995 13.764 3.93795 15.396 4.96195 16.592L4.96395 16.594L24 38.742V56C24 56.738 24.406 57.416 25.056 57.764C25.352 57.922 25.676 58 26 58C26.388 58 26.774 57.886 27.11 57.664L39.11 49.664C39.666 49.292 40 48.668 40 48V38.742L59.038 16.594C60.062 15.396 60.29 13.764 59.63 12.336Z" fill="black"/>
</svg>
